<svg width="24" height="24" viewBox="0 0 24 24" fill="none" xmlns="http://www.w3.org/2000/svg">
<path fill-rule="evenodd" clip-rule="evenodd" d="M5.54339 19.9509C6.25739 19.9509 6.83839 20.5299 6.83839 21.2427C6.83839 21.9554 6.25739 22.5354 5.54339 22.5354C4.82939 22.5354 4.24939 21.9554 4.24939 21.2427C4.24939 20.5299 4.82939 19.9509 5.54339 19.9509ZM16.8237 19.9509C17.5387 19.9509 18.1197 20.5299 18.1197 21.2427C18.1197 21.9554 17.5387 22.5354 16.8237 22.5354C16.1097 22.5354 15.5297 21.9554 15.5297 21.2427C15.5297 20.5299 16.1097 19.9509 16.8237 19.9509ZM1.26759 3.03828L3.34759 3.39765C3.68259 3.45654 3.93759 3.73405 3.96659 4.07346L4.20159 6.86954L5.07544 6.86992C5.21804 6.86998 5.35912 6.87004 5.49871 6.8701L7.10302 6.87087C7.2309 6.87093 7.35735 6.87099 7.48238 6.87106L9.25378 6.87203C9.36506 6.87209 9.47501 6.87216 9.58364 6.87222L10.825 6.87301C10.9233 6.87308 11.0204 6.87315 11.1163 6.87321L12.2081 6.87402C12.2943 6.87408 12.3793 6.87415 12.4632 6.87422L13.4151 6.87503C13.49 6.8751 13.5638 6.87517 13.6365 6.87524L14.2621 6.87586C14.3285 6.87593 14.3939 6.876 14.4582 6.87607L15.1828 6.87691C15.2393 6.87698 15.2949 6.87705 15.3495 6.87712L15.9613 6.87797C16.0087 6.87805 16.0552 6.87812 16.1009 6.87819L16.4898 6.87884C16.5305 6.87891 16.5704 6.87898 16.6096 6.87905L17.0427 6.87993C17.0758 6.88 17.1082 6.88008 17.1399 6.88015L17.4065 6.88082C17.4341 6.88089 17.461 6.88097 17.4873 6.88104L17.773 6.88194C17.7945 6.88201 17.8153 6.88209 17.8356 6.88217L18.0034 6.88285C18.0204 6.88293 18.037 6.883 18.053 6.88308L18.2227 6.884C18.2351 6.88408 18.247 6.88416 18.2584 6.88423L18.3509 6.88493C18.3601 6.88501 18.3688 6.88509 18.3772 6.88517L18.4438 6.88588C18.4503 6.88596 18.4564 6.88604 18.4623 6.88612L18.5076 6.88683C18.5118 6.88691 18.5159 6.88699 18.5197 6.88707L18.5483 6.8878C18.5509 6.88788 18.5534 6.88796 18.5557 6.88804L18.5764 6.88902C18.5777 6.8891 18.5789 6.88918 18.58 6.88926C18.5897 6.89017 18.5912 6.89034 18.5926 6.8905C19.1496 6.97136 19.6396 7.26185 19.9736 7.70906C20.3076 8.15528 20.4476 8.70531 20.3676 9.25634L19.4186 15.8028C19.2396 17.0486 18.1556 17.988 16.8956 17.988H5.97459C4.65759 17.988 3.54259 16.9618 3.43559 15.6491L2.51959 4.77423L1.01259 4.51468C0.603593 4.44281 0.330593 4.05649 0.400593 3.64821C0.472593 3.23992 0.867593 2.97439 1.26759 3.03828ZM4.87483 8.36725L4.32759 8.36691L4.93059 15.5263C4.97459 16.0773 5.42559 16.4906 5.97659 16.4906H16.8936C17.4146 16.4906 17.8596 16.1033 17.9336 15.5892L18.8836 9.04172C18.9056 8.88599 18.8666 8.73027 18.7716 8.60449C18.6776 8.47771 18.5396 8.39585 18.3836 8.37389C18.3764 8.37417 18.3591 8.37442 18.3323 8.37465L18.2235 8.37527C18.2008 8.37536 18.1757 8.37545 18.1485 8.37553L17.582 8.37639C17.5342 8.37643 17.4845 8.37645 17.433 8.37648L16.101 8.37642C16.0267 8.3764 15.9509 8.37637 15.8739 8.37633L14.3538 8.37541C14.2627 8.37534 14.1706 8.37528 14.0776 8.3752L13.2175 8.37452C13.1195 8.37443 13.0208 8.37435 12.9214 8.37427L12.0103 8.37347C11.9074 8.37337 11.8041 8.37328 11.7002 8.37319L11.0727 8.37261C10.9674 8.37251 10.8617 8.37242 10.7559 8.37232L9.79819 8.37142C9.69141 8.37132 9.58456 8.37122 9.4777 8.37113L8.83706 8.37053C8.73044 8.37043 8.62395 8.37033 8.51763 8.37024L7.88243 8.36966C7.77709 8.36957 7.67205 8.36947 7.56738 8.36938L6.63687 8.36858C6.53495 8.3685 6.43357 8.36841 6.33281 8.36833L5.15688 8.36744C5.06199 8.36737 4.96795 8.36731 4.87483 8.36725ZM15.2875 10.5593C15.7015 10.5593 16.0375 10.8948 16.0375 11.308C16.0375 11.7213 15.7015 12.0567 15.2875 12.0567H12.5155C12.1005 12.0567 11.7655 11.7213 11.7655 11.308C11.7655 10.8948 12.1005 10.5593 12.5155 10.5593H15.2875Z" fill="url(#paint0_linear_7998_484)"/>
<defs>
<linearGradient id="paint0_linear_7998_484" x1="0.389648" y1="12.7821" x2="20.3896" y2="12.7821" gradientUnits="userSpaceOnUse">
<stop stop-color="#02AAB0"/>
<stop offset="1" stop-color="#00CDAC"/>
</linearGradient>
</defs>
</svg>
